<svg width="2371" height="395" viewBox="0 0 2371 395" fill="none" xmlns="http://www.w3.org/2000/svg">
<g clip-path="url(#clip0)">
<path d="M1406.47 386.34L1439.36 211C1443.48 189 1446.56 169.48 1448.62 154.38H1462.69L1457.55 187.66H1458.23C1472.99 165.36 1493.58 150.95 1515.54 150.95C1546.77 150.95 1558.43 177.71 1558.43 204.48C1558.43 260.07 1520.34 322.48 1467.84 322.48C1451.71 322.48 1441.07 318.71 1434.9 315.28H1434.21L1421.21 386.28L1406.47 386.34ZM1437.35 300.21C1444.9 306.04 1455.88 309.47 1469.26 309.47C1512.84 309.47 1543.04 247.71 1543.04 205.47C1543.04 185.91 1535.49 164.29 1511.13 164.29C1487.79 164.29 1457.25 193.8 1447.99 243.56L1437.35 300.21Z" fill="black"/>
<path d="M1672.02 319.08C1671.67 309.13 1673.73 293.69 1676.13 274.82H1675.47C1656.59 311.19 1635.66 322.51 1614.04 322.51C1589.04 322.51 1573.89 301.92 1573.89 272.41C1573.89 216.48 1614.04 150.94 1677.89 150.94C1689.56 150.94 1702.6 153 1711.17 155.74L1693.67 244.62C1687.84 275.16 1685.78 301.62 1686.47 319.08H1672.02ZM1694.02 166.72C1690.24 165.35 1684.41 164.32 1674.11 164.32C1626.76 164.32 1589.7 217.17 1589.36 268.98C1589.01 290.26 1595.19 309.47 1617.49 309.47C1644.26 309.47 1674.49 269.33 1682.35 226.77L1694.02 166.72Z" fill="black"/>
<path d="M1725.2 319.08L1746.14 208.24C1750.25 187.31 1752.66 168.78 1754.03 154.37H1767.75C1766.38 165.01 1765.01 175.99 1762.95 190.06H1763.64C1773.93 168.06 1790.06 150.94 1810.64 150.94C1812.72 150.96 1814.79 151.188 1816.82 151.62L1814.07 167.07C1812.16 166.626 1810.2 166.395 1808.24 166.38C1786.62 166.38 1762.6 198.98 1755.73 235.38L1740.29 319.11L1725.2 319.08Z" fill="black"/>
<path d="M1879.27 118L1872.07 154.38H1910.84L1908.1 167.08H1869.32L1851.13 265.22C1849.08 276.22 1847.7 284.78 1847.7 293.7C1847.7 303.31 1852.16 309.14 1862.46 309.14C1867.95 309.14 1871.38 308.8 1874.46 307.77L1875.46 319.77C1870.23 321.338 1864.79 322.146 1859.33 322.17C1839.77 322.17 1832.22 309.17 1832.22 295.41C1832.22 286.48 1833.22 277.9 1836 265.21L1854.53 167.07H1830.85L1833.25 154.37H1857.25L1862.74 124.86L1879.27 118Z" fill="black"/>
<path d="M1907.06 319.08L1929.06 202.75C1932.39 186.762 1934.91 170.614 1936.61 154.37H1950.33L1945.84 188H1946.53C1960.94 164 1981.53 150.94 2003.83 150.94C2019.96 150.94 2040.55 161.23 2040.55 192.46C2040.55 200.69 2039.18 208.93 2037.46 217.85L2018.59 319.08H2003.83L2023.05 217.85C2024.58 209.939 2025.38 201.906 2025.45 193.85C2025.45 176.69 2018.59 164.34 1998.34 164.34C1976.34 164.34 1945.5 191.79 1938.34 231.6L1922.21 319.1L1907.06 319.08Z" fill="black"/>
<path d="M2161.34 309.82C2152.76 315.31 2136.97 322.17 2116.39 322.17C2077.95 322.17 2064.57 291.97 2064.57 260.4C2064.57 213.05 2097.51 150.94 2144.87 150.94C2171.98 150.94 2183.3 168.78 2183.3 186.94C2183.3 228.8 2135.3 240.47 2081.38 240.13C2079.67 247.68 2079.38 269.3 2082.76 280.96C2088.59 299.84 2101.29 308.76 2118.76 308.76C2136.94 308.76 2149.3 302.24 2156.85 297.76L2161.34 309.82ZM2142.12 164.32C2116.73 164.32 2093.74 191.77 2083.79 227.12C2126.68 227.46 2167.86 220.25 2167.86 187.65C2167.86 172.21 2157.56 164.32 2142.12 164.32Z" fill="black"/>
<path d="M2191.53 319.08L2212.47 208.24C2216.59 187.31 2218.99 168.78 2220.36 154.37H2234.09C2232.71 165.01 2231.34 175.99 2229.28 190.06H2229.97C2240.26 168.06 2256.39 150.94 2276.97 150.94C2279.05 150.96 2281.12 151.188 2283.15 151.62L2280.4 167.07C2278.49 166.626 2276.53 166.395 2274.57 166.38C2252.95 166.38 2228.93 198.98 2222.07 235.38L2206.62 319.11L2191.53 319.08Z" fill="black"/>
<path d="M2276.29 299.87C2284.97 305.561 2295.09 308.655 2305.46 308.79C2327.08 308.79 2341.46 293.35 2341.46 274.79C2341.46 258.31 2334.6 248.36 2319.16 238.41C2303.03 227.77 2294.1 213.02 2294.1 197.92C2294.1 172.18 2314.69 150.92 2343.52 150.92C2354.84 150.92 2366.17 154.69 2370.97 158.47L2365.47 171.18C2360.32 168.09 2351.4 164.32 2341.79 164.32C2321.89 164.32 2308.85 178.05 2308.85 195.2C2308.85 210.65 2317.43 219.2 2331.16 228.2C2346.94 238.84 2356.55 253.93 2356.55 270.41C2356.55 303.69 2332.19 322.22 2304.05 322.22C2289.29 322.22 2276.25 316.73 2270.76 312.27L2276.29 299.87Z" fill="black"/>
<path d="M298.17 74.16C298.041 73.3312 297.638 72.5694 297.025 71.9966C296.412 71.4237 295.625 71.0729 294.79 71C293.39 70.89 265.97 70.47 265.97 70.47C265.97 70.47 243.04 48.22 240.78 46C238.52 43.78 234.09 44.43 232.37 44.93L220.85 48.5C219.429 43.8252 217.585 39.2897 215.34 34.95C207.17 19.38 195.22 11.13 180.78 11.11H180.73C179.73 11.11 178.73 11.21 177.73 11.3C177.31 10.79 176.88 10.3 176.42 9.79004C170.14 3.06004 162.06 -0.209964 152.42 0.0700357C133.73 0.550036 115.16 14 100.09 38C89.4697 54.8 81.4697 76 79.1397 92.33L42.3997 103.71C31.5897 107.1 31.2497 107.44 29.8297 117.63C28.7597 125.34 0.469727 344.13 0.469727 344.13L237.59 385.13L340.36 359.59C340.36 359.59 298.47 76.11 298.17 74.16ZM208.97 52.16L190.57 57.85C190.43 48.41 189.31 35.26 184.9 23.9C199.06 26.56 206.03 42.57 208.97 52.13V52.16ZM178.17 61.69L138.58 73.92C142.41 59.27 149.66 44.68 158.58 35.13C162.321 30.9577 166.901 27.6218 172.02 25.34C177.17 36.1 178.29 51.36 178.17 61.66V61.69ZM152.75 12.43C156.704 12.2226 160.625 13.2501 163.97 15.37C158.528 18.2794 153.624 22.0978 149.47 26.66C137.62 39.37 128.54 59.11 124.92 78.15L92.4697 88.22C98.8297 58.24 123.95 13.26 152.75 12.43Z" fill="#95BF47"/>
<path d="M294.79 71C293.39 70.89 265.97 70.47 265.97 70.47C265.97 70.47 243.04 48.22 240.78 46C239.903 45.1837 238.789 44.6687 237.6 44.53V385.13L340.36 359.59C340.36 359.59 298.47 76.11 298.17 74.16C298.041 73.3312 297.638 72.5694 297.025 71.9966C296.412 71.4237 295.625 71.0728 294.79 71V71Z" fill="#5E8E3E"/>
<path d="M180.64 123.87L168.7 168.52C159.492 164.706 149.555 162.975 139.6 163.45C116.47 164.91 116.21 179.51 116.47 183.17C117.73 203.17 170.27 207.5 173.22 254.28C175.55 291.08 153.7 316.28 122.22 318.28C84.4502 320.66 63.6602 298.38 63.6602 298.38L71.6602 264.38C71.6602 264.38 92.5702 280.08 109.32 279C120.26 278.31 124.18 269.41 123.78 263.12C122.13 237.12 79.3502 238.6 76.6502 195.8C74.3802 159.8 98.0301 123.28 150.23 119.98C170.34 118.73 180.64 123.87 180.64 123.87Z" fill="white"/>
<path d="M479.6 219.15C467.69 212.69 461.6 207.24 461.6 199.75C461.6 190.22 470.11 184.1 483.39 184.1C498.85 184.1 512.66 190.56 512.66 190.56L523.47 157.21C523.47 157.21 513.47 149.38 483.99 149.38C442.99 149.38 414.55 172.86 414.55 205.88C414.55 224.6 427.83 238.88 445.55 249.1C459.84 257.27 464.95 263.1 464.95 271.57C464.95 280.42 457.8 287.57 444.53 287.57C424.75 287.57 406.07 277.36 406.07 277.36L394.47 310.71C394.47 310.71 411.73 322.28 440.76 322.28C482.97 322.28 513.26 301.52 513.26 264.08C513.3 244 497.98 229.7 479.6 219.15Z" fill="black"/>
<path d="M647.739 149C626.979 149 610.639 158.87 598.049 173.84L597.359 173.51L615.359 79.23H568.469L522.859 319.23H569.859L585.509 237.23C591.639 206.23 607.639 187.23 622.609 187.23C633.159 187.23 637.249 194.38 637.249 204.59C637.246 211.56 636.559 218.514 635.199 225.35L617.469 319.22H664.469L682.839 222.22C684.871 212.126 686.012 201.873 686.249 191.58C686.199 165 672.239 149 647.739 149Z" fill="black"/>
<path d="M792.39 149C735.89 149 698.47 200.09 698.47 256.93C698.47 293.35 720.93 322.62 763.14 322.62C818.62 322.62 856.05 272.93 856.05 214.73C856.03 181 836.29 149 792.39 149ZM769.25 286.5C753.25 286.5 746.44 272.89 746.44 255.87C746.44 228.98 760.44 185.08 785.92 185.08C802.6 185.08 808.04 199.37 808.04 213.33C808.04 242.3 794.09 286.54 769.25 286.54V286.5Z" fill="black"/>
<path d="M976.18 149C944.47 149 926.47 177 926.47 177H925.79L928.51 151.81H887.01C885.01 168.81 881.22 194.7 877.48 214.1L844.81 385.92H891.81L904.74 316.49H905.74C905.74 316.49 915.38 322.62 933.31 322.62C988.45 322.62 1024.52 266.12 1024.52 208.94C1024.47 177.29 1010.56 149 976.18 149ZM931.26 287.22C924.191 287.324 917.316 284.914 911.86 280.42L919.69 236.51C925.13 207.24 940.45 187.84 956.78 187.84C971.08 187.84 975.5 201.11 975.5 213.71C975.47 244 957.47 287.22 931.26 287.22Z" fill="black"/>
<path d="M1091.56 81.65C1088 81.6389 1084.47 82.3383 1081.18 83.7072C1077.89 85.0761 1074.91 87.087 1072.4 89.6224C1069.9 92.1578 1067.93 95.1668 1066.6 98.4734C1065.28 101.78 1064.62 105.318 1064.68 108.88C1064.68 122.88 1073.53 132.36 1086.8 132.36H1087.48C1102.12 132.36 1114.71 122.49 1115.05 105.13C1115.05 91.52 1105.86 81.65 1091.56 81.65Z" fill="black"/>
<path d="M1025.88 319.22H1072.85L1104.84 152.78H1057.53L1025.88 319.22Z" fill="black"/>
<path d="M1224.3 152.44H1191.63L1193.33 144.62C1196.05 128.62 1205.58 114.32 1221.24 114.32C1226.33 114.328 1231.4 115.135 1236.24 116.71L1245.4 80C1245.4 80 1237.23 75.91 1219.87 75.91C1203.2 75.91 1186.52 80.68 1173.93 91.57C1157.93 105.18 1150.44 124.92 1146.7 144.67L1145.34 152.49H1123.56L1116.75 187.89H1138.53L1113.68 319.27H1160.68L1185.47 187.84H1217.8L1224.3 152.44Z" fill="black"/>
<path d="M1337.3 152.78C1337.3 152.78 1307.94 226.78 1294.75 267.14H1294.08C1293.17 254.14 1282.5 152.78 1282.5 152.78H1233.15L1261.4 305.6C1262.08 309 1261.74 311.05 1260.4 313.43C1254.95 323.98 1245.76 334.19 1234.87 341.68C1226.02 348.15 1216.15 352.23 1208.33 354.95L1221.26 394.78C1230.79 392.78 1250.53 384.9 1267.26 369.25C1288.7 349.17 1308.44 318.19 1328.86 275.99L1386.38 152.78H1337.3Z" fill="black"/>
</g>
<defs>
<clipPath id="clip0">
<rect width="2370.53" height="394.78" fill="white" transform="translate(0.469727)"/>
</clipPath>
</defs>
</svg>
